<svg xmlns="http://www.w3.org/2000/svg" xmlns:xlink="http://www.w3.org/1999/xlink" viewBox="0 0 8166.67 6346.4">
<defs>
<style>
.cls-1{fill:url(#linear-gradient);}
.cls-2{fill:#609a3e;}
.cls-3{fill:url(#linear-gradient-2);}
.cls-4{fill:url(#linear-gradient-3);}
.cls-5{fill:url(#linear-gradient-4);}
.cls-6{fill:#e0e0e0;}
.cls-40,.cls-7{fill:#b8b8b8;}
.cls-8{fill:#d9d9d9;}
.cls-9{fill:url(#linear-gradient-5);}
.cls-10{fill:url(#linear-gradient-6);}
.cls-11,.cls-24{fill:#fff;}
.cls-12{fill:#1a598c;}
.cls-13{fill:#2273b5;}.cls-14{fill:#3d96e0;}.cls-15{fill:#4b59c7;}.cls-16{fill:#6f5be0;}.cls-17{fill:#b487fe;}.cls-18{fill:#3788cc;}.cls-19{fill:#c4c4c4;}.cls-20{fill:#b8d6ff;}.cls-21{fill:url(#linear-gradient-7);}.cls-22{fill:url(#linear-gradient-8);}.cls-23{fill:url(#linear-gradient-9);}.cls-24{opacity:0.73;}.cls-25{fill:#42cde8;}.cls-26{fill:url(#linear-gradient-10);}.cls-27{fill:#7bd6e8;}.cls-28{fill:url(#linear-gradient-11);}.cls-29{fill:url(#linear-gradient-12);}.cls-30{fill:url(#linear-gradient-13);}.cls-31{fill:url(#linear-gradient-14);}.cls-32{fill:#2d3038;}.cls-33{fill:#eea886;}.cls-34{fill:#e4e8eb;}.cls-35{fill:#bdc0c2;}.cls-36{fill:#c6c9cc;}.cls-37{fill:#0f324f;}.cls-38{fill:#e54242;}.cls-39{fill:#1d3b54;}.cls-40{opacity:0.1;}.cls-41{fill:#869ac2;opacity:0.3;}.cls-42{fill:#3f444f; }.cls-43{fill:#292c47;}.cls-44{fill:#e2d2ca;}.cls-45{fill:#ead8cf;}.cls-46{fill:#da9b5b;}.cls-47{fill:#424773;}.cls-48{fill:#3a3f47;}.cls-49{fill:#323657;}.cls-50{fill:#252840;}

</style>
<linearGradient id="linear-gradient" x1="4060.74" y1="5687.88" x2="4060.74" y2="4355.12" gradientUnits="userSpaceOnUse">
<stop offset="0" stop-color="#d5e4ff"/><stop offset="1" stop-color="#edfffe"/>
</linearGradient>
<linearGradient id="linear-gradient-2" x1="7674.08" y1="-1966.63" x2="7674.08" y2="-3037.35" gradientTransform="translate(-1318.6 1199.96) rotate(21.23)" gradientUnits="userSpaceOnUse"><stop offset="0.01" stop-color="#3c6127"/><stop offset="1" stop-color="#639c38"/></linearGradient>
<linearGradient id="linear-gradient-3" x1="7900.07" y1="-7156.46" x2="7900.07" y2="-9077.61" gradientTransform="translate(-4441.97 1813.67) rotate(44.28)" xlink:href="#linear-gradient-2"/><linearGradient id="linear-gradient-4" x1="2740.83" y1="-46.12" x2="6490.36" y2="6692.89" xlink:href="#linear-gradient"/>
<linearGradient id="linear-gradient-5" x1="1733.79" y1="3056.4" x2="5167.3" y2="3056.4" gradientUnits="userSpaceOnUse"><stop offset="0" stop-color="#ffc05c"/><stop offset="1" stop-color="#ff3857"/></linearGradient>
<linearGradient id="linear-gradient-6" x1="1733.79" y1="2963.49" x2="5169.11" y2="2963.49" gradientUnits="userSpaceOnUse"><stop offset="0" stop-color="#40d5e6"/><stop offset="1" stop-color="#57f"/></linearGradient>
<linearGradient id="linear-gradient-7" x1="3954.47" y1="4275.52" x2="677.68" y2="4275.52" xlink:href="#linear-gradient-6"/>
<linearGradient id="linear-gradient-8" x1="3954.46" y1="4435.26" x2="677.68" y2="4435.26" xlink:href="#linear-gradient-6"/>
<linearGradient id="linear-gradient-9" x1="3954.46" y1="4594.99" x2="677.69" y2="4594.99" xlink:href="#linear-gradient-6"/>
<linearGradient id="linear-gradient-10" x1="5657.29" y1="4241.29" x2="7432.04" y2="4241.29" xlink:href="#linear-gradient-6"/>
<linearGradient id="linear-gradient-11" x1="6125.53" y1="2158.25" x2="6125.53" y2="3472.21" xlink:href="#linear-gradient-6"/>
<linearGradient id="linear-gradient-12" x1="6124.62" y1="2158.23" x2="6124.62" y2="3472.23" xlink:href="#linear-gradient-6"/>
<linearGradient id="linear-gradient-13" x1="6124.61" y1="2408.03" x2="6124.61" y2="3479.12" xlink:href="#linear-gradient-6"/>
<linearGradient id="linear-gradient-14" x1="-257.21" y1="4413.15" x2="1762.33" y2="4413.15" gradientTransform="translate(1010.88 8890.01) rotate(-170.34)" gradientUnits="userSpaceOnUse"><stop offset="0" stop-color="#ff9f55"/>
<stop offset="1" stop-color="#ffd255"/>
</linearGradient>
</defs>
<title>0Asset 32</title>
<g id="Layer_2" data-name="Layer 2">
<g id="Слой_1" data-name="Слой 1">
<rect class="cls-1" x="2514.93" y="4647.33" width="3091.62" height="547.66" rx="5.77"/>
<path class="cls-2" d="M6990.67,1556.42c-192.62,37.44-265.3,411.69-278.64,491.5-1.71,9.53-2.44,14.94-2.44,14.94a550.53,550.53,0,0,1-39.23-40c-211.7-237.27-312.45-719.11-48-841.19,280.37-129.41,163.06-400.05,208-634.13s427.48-350.29,427.48-350.29-136.11,271.49-30.1,630.4S7206.38,1514.43,6990.67,1556.42Z"/><path class="cls-3" d="M6709.59,2062.86a550.53,550.53,0,0,1-39.23-40c-65-140.59-119.61-353.88,20.73-533.17,50.24-64.17,95.41-116.91,135.3-163.52,141.93-166,213.23-249.2,203.68-481.29l28.05,1.63c9.93,240.57-67.82,331.38-208.87,496.24-39.65,46.41-84.61,99-134.53,162.73-144.76,185.12-71.14,409.4-2.69,542.43C6710.32,2057.45,6709.59,2062.86,6709.59,2062.86Z"/>
<path class="cls-2 contact_block-sec" d="M6761.18,2106.62c-204.48,233.07-306.46,342.24-429.1,218.31a196,196,0,0,1-15.45-17.51,372.12,372.12,0,0,1-29.92-43.7c-145.07-243.45,40.45-891.26,490.9-1000.17s213.55-439,469.22-664.35c273-240.57,581.86,70.23,581.86,70.23-213.86-68.32-392.91,592.28-537.12,916.84C7117.14,1978.84,6990.25,1845.57,6761.18,2106.62Z"/>
<path class="cls-4" d="M6332.08,2324.93a196,196,0,0,1-15.45-17.51c45.28-218.59,198.88-573.4,387.88-660.78,289.68-134,442.17-310.16,494.28-571.06,61.33-307.24,263.41-329.84,265.46-330l1.65,18.2c-1.87.22-190.71,22.2-249.24,315.46-53.33,267.13-208.94,447.22-504.6,584-102.85,47.57-210,188.65-293.85,387.08C6375.34,2151.9,6346.49,2249.47,6332.08,2324.93Z"/><rect class="cls-5" x="1406.42" width="5458.25" height="4921.16" rx="11.81"/><rect class="cls-6" x="1727.74" y="2447.08" width="12.07" height="1266.58"/><rect class="cls-6" x="2586.12" y="2447.08" width="12.07" height="1266.58"/><rect class="cls-6" x="3444.5" y="2447.08" width="12.07" height="1266.58"/><rect class="cls-6" x="4302.87" y="2447.08" width="12.08" height="1266.58"/><rect class="cls-6" x="5161.25" y="2447.08" width="12.07" height="1266.58"/><rect class="cls-7" x="1733.79" y="3788.7" width="136.55" height="44.03"/><rect class="cls-8" x="1733.79" y="2291.01" width="205.6" height="33.01"/><rect class="cls-8" x="1733.79" y="2352.03" width="291.64" height="33.01"/><rect class="cls-8" x="2582.9" y="2291.01" width="241.38" height="33.01"/><rect class="cls-8" x="2582.9" y="2352.03" width="154.34" height="33.01"/><rect class="cls-8" x="3456.57" y="2291.01" width="149.59" height="33.01"/><rect class="cls-8" x="3456.57" y="2352.03" width="174.33" height="33.01"/><rect class="cls-8" x="4314.95" y="2291.01" width="217.89" height="33.01"/><rect class="cls-8" x="4314.95" y="2352.03" width="174.35" height="33.01"/><rect class="cls-8" x="5167.3" y="2291.01" width="130.14" height="33.01"/><rect class="cls-8" x="5167.3" y="2352.03" width="104.12" height="33.01"/><rect class="cls-7" x="2592.17" y="3788.7" width="136.55" height="44.03"/><rect class="cls-7" x="3456.57" y="3788.7" width="136.57" height="44.03"/><rect class="cls-7" x="4314.95" y="3788.7" width="136.57" height="44.03"/><rect class="cls-7" x="5173.33" y="3788.7" width="136.57" height="44.03"/><path class="cls-9" d="M4869.83,3337.34c-267.74,0-500.47-115.74-743.1-236.39-299.54-148.95-609.28-303-1021.95-260.81-263.53,26.92-428.93,134.24-574.87,228.93-132.12,85.73-257,161.13-426.25,167.56-273.43,10.4-368.29-106.21-369.87-113.33v-74.84h0c.32,1.29,60,132.19,369.58,130.63,152.44-.76,265-73.77,395.24-158.28,151.38-98.23,323-209.56,600.31-237.9,429.22-43.88,746.55,113.91,1053.43,266.51,321.1,159.69,627.5,309.42,1014.95,179.51v61.53C5056.86,3327.48,4968.53,3337.34,4869.83,3337.34Z"/><path class="cls-10" d="M3262.76,3323c-197.63,0-354.35-132.9-507.81-263-116.36-98.64-237.06-199.5-376.41-249.25-425.25-151.83-642.81,125.41-644.75,127.84v-84.33c2.28-2.89,41.1-53.27,153.38-101.39,102.22-43.81,273.72-78.76,510.27,3.53,149.88,52.14,274.34,157.66,394.71,259.72,244.18,207,455.06,385.81,821.29,105.76,277.39-212.1,538.85-414.23,796.14-488.07,251.62-72.23,514-19.36,759.53,226.2l-1.81,76.58c-521.64-523.92-965.79-192-1518.91,231C3501.87,3279.61,3375.63,3323,3262.76,3323Z"/><path class="cls-11 contact_block-sec" d="M2241.46,538.76c-199.84-40.27-395.51,56-490.32,224.64a458.83,458.83,0,0,0-49.74,134.3c-29.52,146.63,14.43,291,106.55,395a456.51,456.51,0,0,0,252.41,145.1q15.16,3,30.32,5.08a456.56,456.56,0,0,0,134.44-2c182.76-30,336.58-169.76,375.32-362.05C2650.45,830.56,2489.73,588.78,2241.46,538.76Zm246.47,517.39c-29,144.18-144.36,249-281.38,271.45a341.86,341.86,0,0,1-100.8,1.47c-7.55-1-15.16-2.27-22.73-3.79a342.26,342.26,0,0,1-189.22-108.79c-69.09-78-102.06-186.19-79.91-296.13a344.18,344.18,0,0,1,37.29-100.67c71.07-126.42,217.78-198.63,367.63-168.45C2404.94,688.75,2525.42,870,2487.93,1056.15Z"/><path class="cls-12" d="M1893.8,1216.49,1808,1292.67c-92.12-103.94-136.07-248.34-106.55-395a458.83,458.83,0,0,1,49.74-134.3l100,56.29a344.18,344.18,0,0,0-37.29,100.67C1791.74,1030.3,1824.71,1138.54,1893.8,1216.49Z"/><path class="cls-13" d="M2105.75,1329.07l-15.07,113.78q-15.15-2-30.32-5.08A456.51,456.51,0,0,1,1808,1292.67l85.85-76.18A342.26,342.26,0,0,0,2083,1325.28C2090.59,1326.8,2098.2,1328.05,2105.75,1329.07Z"/><path class="cls-14" d="M2225.12,1440.88a456.56,456.56,0,0,1-134.44,2l15.07-113.78a341.86,341.86,0,0,0,100.8-1.47Z"/><path class="cls-11" d="M3839.61,1167.88c79.87-187.57,25.16-398.67-120.79-525.63a458.31,458.31,0,0,0-121.45-75.89c-137.62-58.59-287.93-44.74-408.36,24.42a456.46,456.46,0,0,0-193.16,217.85q-6.07,14.22-11.12,28.65a456,456,0,0,0-25.27,132.07c-7.63,185,98.15,363.95,278.62,440.81C3471.1,1509.36,3740.4,1400.9,3839.61,1167.88Zm-556.56,136.68c-135.33-57.61-214.62-191.76-208.92-330.47a342.33,342.33,0,0,1,19-99c2.52-7.2,5.28-14.38,8.31-21.49a342.19,342.19,0,0,1,144.83-163.3c90.29-51.89,203-62.27,306.15-18.32a343.87,343.87,0,0,1,91.07,56.88c109.42,95.16,150.44,253.46,90.58,394.1C3659.66,1297.63,3457.75,1378.93,3283.05,1304.56Z"/><path class="cls-15" d="M3246.25,690.27,3189,590.78c120.43-69.16,270.74-83,408.36-24.42a458.31,458.31,0,0,1,121.45,75.89l-75.35,86.58A343.87,343.87,0,0,0,3552.4,672C3449.24,628,3336.54,638.38,3246.25,690.27Z"/><path class="cls-16" d="M3093.11,875.06l-108.38-37.78q5-14.4,11.12-28.65A456.46,456.46,0,0,1,3189,590.78l57.24,99.49a342.19,342.19,0,0,0-144.83,163.3C3098.39,860.68,3095.63,867.86,3093.11,875.06Z"/><path class="cls-17" d="M2959.46,969.35a456,456,0,0,1,25.27-132.07l108.38,37.78a342.33,342.33,0,0,0-19,99Z"/><path class="cls-11" d="M4958.38,620.5c-163.5-121.77-381.55-118.27-539.29-6.3a457.73,457.73,0,0,0-102.34,100.18c-89.33,120-111.25,269.33-72.36,402.63a456.62,456.62,0,0,0,166.28,239q12.39,9.24,25.22,17.54a456.34,456.34,0,0,0,122.42,55.63c178.06,51,376.83-9.73,494-167.07C5203.56,1059,5161.51,771.76,4958.38,620.5Zm1.87,573.09c-87.84,118-236.86,163.46-370.35,125.28a342.61,342.61,0,0,1-91.78-41.74q-9.6-6.21-18.93-13.15a342.34,342.34,0,0,1-124.64-179.18c-29.16-100-12.75-211.93,54.23-301.88a343.67,343.67,0,0,1,76.73-75.11c118.23-83.95,281.74-86.59,404.33,4.7C5042.13,825.91,5073.65,1041.3,4960.25,1193.59Z"/><path class="cls-12" d="M4354.55,1084.8,4244.39,1117c-38.89-133.3-17-282.65,72.36-402.63A457.73,457.73,0,0,1,4419.09,614.2l66.42,93.61a343.67,343.67,0,0,0-76.73,75.11C4341.8,872.87,4325.39,984.83,4354.55,1084.8Z"/><path class="cls-13" d="M4498.12,1277.13l-62.23,96.44q-12.81-8.28-25.22-17.54a456.62,456.62,0,0,1-166.28-239l110.16-32.21A342.34,342.34,0,0,0,4479.19,1264Q4488.5,1270.9,4498.12,1277.13Z"/><path class="cls-18" d="M4558.31,1429.2a456.34,456.34,0,0,1-122.42-55.63l62.23-96.44a342.61,342.61,0,0,0,91.78,41.74Z"/><rect class="cls-19" x="1692.25" y="1664.77" width="917.33" height="70.74"/><rect class="cls-19" x="1692.25" y="1815.12" width="686.48" height="70.74"/><rect class="cls-19" x="2959.06" y="1664.77" width="505.82" height="70.74"/><rect class="cls-19" x="2959.06" y="1815.12" width="750.82" height="70.74"/><rect class="cls-19" x="4309.1" y="1664.77" width="562.18" height="70.74"/><rect class="cls-19" x="4309.1" y="1815.12" width="651.16" height="70.74"/><rect class="cls-20" x="5732.11" y="746.99" width="667.07" height="66.94"/><rect class="cls-20" x="5732.11" y="954.17" width="766.71" height="66.94"/><rect class="cls-20" x="5730.97" y="1160.22" width="396.67" height="66.92"/><rect class="cls-20" x="5730.97" y="1366.26" width="611.17" height="66.94"/><rect class="cls-11" x="1692.25" y="4241.29" width="2918.9" height="68.47"/><rect class="cls-11" x="1692.25" y="4401.03" width="3153.93" height="68.47"/><rect class="cls-11" x="1692.25" y="4560.76" width="2046.47" height="68.45"/><rect class="cls-21" x="1692.25" y="4241.29" width="1519.85" height="68.47"/><rect class="cls-22" x="1692.25" y="4401.03" width="1642.23" height="68.47"/><rect class="cls-23" x="1692.25" y="4560.76" width="1065.57" height="68.45"/><rect class="cls-24" x="5387.31" y="1948.41" width="2314.71" height="3331.8" rx="12.16"/><rect class="cls-25" x="5652.74" y="3614.31" width="9.13" height="1170.32"/><rect class="cls-25" x="6096.41" y="3614.31" width="9.13" height="1170.32"/><rect class="cls-25" x="6540.11" y="3614.31" width="9.13" height="1170.32"/><rect class="cls-25" x="6983.79" y="3614.31" width="9.13" height="1170.32"/><rect class="cls-25" x="7427.48" y="3614.31" width="9.11" height="1170.32"/><path class="cls-26" d="M5657.29,4310.1s164.46,99.66,339.19-80.67,363.18-322.68,541.34-170.83,287.79,189.81,466,19S7168.23,3698,7432,3698V4784.63H5657.29Z"/><rect class="cls-27" x="5657.29" y="3516.83" width="175.91" height="42.59"/><rect class="cls-27" x="6100.99" y="3516.83" width="110.24" height="42.59"/><rect class="cls-27" x="6544.67" y="3516.83" width="135.88" height="42.59"/><rect class="cls-27" x="6988.36" y="3516.83" width="209.41" height="42.59"/><rect class="cls-27" x="7432.04" y="3516.83" width="73.02" height="42.59"/><rect class="cls-11" x="6761.18" y="2747.31" width="593.28" height="75.04"/><rect class="cls-11" x="6761.18" y="3061.86" width="544.61" height="75.04"/><rect class="cls-11" x="6761.18" y="2904.57" width="471.2" height="75.06"/><path class="cls-28" d="M6229.26,2640.19a103.74,103.74,0,1,1-103.74-103.73A103.73,103.73,0,0,1,6229.26,2640.19Z"/><path class="cls-29" d="M6312.65,2978.36v197.28a456.12,456.12,0,0,1-376.06,0V2978.36c0-103.8,84.13-188,188-188S6312.65,2874.56,6312.65,2978.36Z"/><path class="cls-30" d="M6124.61,3228.53a463.28,463.28,0,0,1-193.14-41.65c-166.55-75.69-274.18-242.78-274.18-425.67,0-257.66,209.65-467.31,467.32-467.31s467.32,209.65,467.32,467.31c0,182.89-107.61,350-274.18,425.67A463.22,463.22,0,0,1,6124.61,3228.53Zm0-910c-244.07,0-442.64,198.57-442.64,442.64,0,173.25,101.94,331.51,259.72,403.21a443.91,443.91,0,0,0,365.84,0c157.78-71.7,259.72-230,259.72-403.21C6567.25,2517.14,6368.68,2318.57,6124.61,2318.57Z"/><path class="cls-16" d="M807.22,3877s128.1-290.22-20.51-266.18c0,0-50.59,41.83-102.51,127-39.33,64.54-121.09,235.34-118.07,293.11s44.12,100.84,88.48,193.61c0,0,92.24,172.2,96.13,192.95l97.5-50.62s-82.62-164.64-140.85-309.38Z"/><rect class="cls-31 " x="14.28" y="4243.91" width="1990.98" height="338.49" transform="translate(2745.99 8594.2) rotate(170.34)"/><rect class="cls-32" x="1990.38" y="4108.66" width="106.34" height="256.92" transform="translate(4769.27 8071.16) rotate(170.34)"/><path class="cls-33" d="M1548.72,6335.54h24.17s-8.06-91.28,14.32-92.17,77.86,74.27,111,85.91,203.15,21.46,204-9.84-65.32-43.86-85.9-52.8-120.82-106.5-138.73-118.14-48.44-92.52-48.44-92.52l-94.91-4.21s-5.36,75.6-11.12,115.63c-2.14,14.8-3.7,28.29-3.92,37.49C1518.31,6238.9,1548.72,6335.54,1548.72,6335.54Z"/><path class="cls-33" d="M937.23,6317.5h20.14v-85c16.77,1.41,73.17,54.77,90.63,70.23s41.38,14.74,114.89,19.42,80.41-39.34,68.79-54.32-49.24-21.51-68.79-30.86-96.78-96.43-117.37-117-33.12-79.56-33.12-79.56l-85.9,7.48s.55,54-9.24,99.24v0a1.35,1.35,0,0,0-.09.33q-1.24,5.79-2.75,11.35C901.66,6205.86,937.23,6317.5,937.23,6317.5Z"/><path class="cls-34" d="M1254.91,4391.6s32.46,76.79,35.33,96.18,78.87,203.12,100.85,327c13.17,74.15,49.5,306.29,52.44,335.8,5,50.51,28.83,162,32.48,213.6,2,28.84,144.1,471.55,178.49,702.69,0,0-81.7,12.1-143.07-4.12,0,0-124.71-238.89-193.94-577.72-41.72-204.07-78.6-312.88-110.9-396.93S991.29,4766,972.19,4739.27s-138.78-174.53-25.46-334.65S1254.91,4391.6,1254.91,4391.6Z"/><path class="cls-34" d="M845.82,5071.67c10.36,68.94-.53,159.48-22.18,411.52s37.89,557.19,37.89,557.19c74.81,25.6,161,0,161,0-2-17.72,0-614.3,0-667.46s15.27-113.5,19.19-174.52c2.7-41.58,22-118.25,43.8-196.5,6.53-23.46,13.26-47,19.82-69.85v0l10.8-37.53c30.67-106.32,71.9-516.89,71.9-516.89s-228.51-184-339.76-10.76S794.11,4666.1,798,4687.75,835.45,5002.79,845.82,5071.67Z"/><path class="cls-35" d="M940.56,4701.42c1.77,3.92,115.63,256.65,144.92,300.48,6.53-23.46,13.26-47,19.82-69.85v0S944.37,4707,940.56,4701.42Z"/><path class="cls-36" d="M937.23,6317.5h20.14v-85c16.77,1.41,73.17,54.77,90.63,70.23s41.38,14.74,114.89,19.42,80.41-39.34,68.79-54.32-49.24-21.51-68.79-30.86c-78.63,4.19-174.59-106.36-220.65-106.13-24.46.13-24.24,13.67-25,16.25v0a1.35,1.35,0,0,0-.09.33q-1.24,5.79-2.75,11.35C901.66,6205.86,937.23,6317.5,937.23,6317.5Z"/><path class="cls-36" d="M1548.72,6335.54h24.17s-8.06-91.28,14.32-92.17,77.86,74.27,111,85.91,203.15,21.46,204-9.84-65.32-43.86-85.9-52.8c-70.13-.16-184.19-77.36-219.56-93s-73.64-6.25-73.64-6.25c-2.14,14.8-3.7,28.29-3.92,37.49C1518.31,6238.9,1548.72,6335.54,1548.72,6335.54Z"/><path class="cls-33" d="M1053.16,3427.83s-36.47,96.48-8.11,171c0,0-133.69-8.7-138.76-24.31s5.38-160.14-13-202.86S1053.16,3427.83,1053.16,3427.83Z"/><path class="cls-16" d="M1066.06,3566.23s79,28.09,114.72,35.9,110.38,43.19,104.32,176.38-28.36,248.68-36.48,305.93-3,202.91,10.13,273.67c0,0-189.39,47.85-412.21,0,0,0,39.5-120.71,38.49-151.93S753.36,3918,747.28,3877.37s-32.41-219.58,27.35-259.12,108.37-34.33,133.7-52S1029.12,3553.54,1066.06,3566.23Z"/><path class="cls-16" d="M761.23,4567.41c323.59,85.84,581.08.32,581.08.32a800.46,800.46,0,0,1-53.25-143,0,0,0,0,0,0,0,855.63,855.63,0,0,1-19.92-96h0c-26.31-176.28,8-311.27,8-311.27-37.35-307.4-502.48-399.14-539.72-301.7s72.18,516.2,77.72,552.11S761.23,4567.41,761.23,4567.41Z"/><path class="cls-33" d="M936.63,3040.8c53.74-18.43,199-38.06,236.23,184.94s-43.83,226.82-127.11,220.48S832.22,3289.35,822.24,3243.6,783.28,3093.41,936.63,3040.8Z"/><path class="cls-37" d="M1142.92,3126.44s-44.37,94.94-102.58,128c0,0-36.46,100.87-115.43,141.65,0,0-209.55-138.8-88-303.77S1129.21,3058.77,1142.92,3126.44Z"/><path class="cls-33" d="M1045.48,3221.56c-4.71-11.6-36.11-30.47-50.2,1.36s36.5,87.9,50.35,84.86S1063.38,3265.59,1045.48,3221.56Z"/><path class="cls-37" d="M844,3117.85c-4.58-7.15-143.35-71.39-172.21,62.84S783.59,3471,808.23,3538.13s-11.14,224.42-11.14,224.42,84.63-80,110.22-163.69C935.41,3506.92,944.86,3275.08,844,3117.85Z"/><path class="cls-38" d="M837.05,3113.26s42.47,33.62,48,86.64c0,0,8-41.36-9.16-66.63S837.05,3113.26,837.05,3113.26Z"/><path class="cls-39" d="M1289,4424.67a855,855,0,0,1-19.92-96h0s-21.33-45.36-28.52-67-60.77-288.16-60.77-288.16S1123.15,4223.75,1289,4424.67Z"/><path class="cls-33" d="M1527.24,4440.13s41.73,41.44,55.22,45.61,39.5-18.81,135.31-25.93c8.41-.61,23.21,7,19.72,18.07s-45.19,41.34-63,46-102,38.07-143.08,21.64-69-68.63-69-68.63Z"/><path class="cls-16" d="M1203.11,3609.43s110.8,43.92,117.37,197.91,12.59,234.42,18.6,258.18,17.5,119.32,45.39,176.81c27,55.77,204.61,232.28,204.61,232.28l-85.93,80.8S1255.63,4307,1240.58,4261.63s-76.91-361.44-81.83-414.72C1154.77,3804,1098.13,3612.62,1203.11,3609.43Z"/><circle class="cls-40" cx="3275.5" cy="3963.41" r="1062.12"/><path class="cls-41" d="M2582.58,3193.07S3928.17,3026.31,4196.3,4446.43c0,0,0,0,0,0,77.16-145.07,120.92-310.62,120.92-486.38,0-572.64-464.21-1036.87-1036.87-1036.87C3011.62,2923.17,2766.79,3025.38,2582.58,3193.07Z"/><path class="cls-42 contact_block-sec 	" d="M3275.57,2731.53c-680.37,0-1231.91,551.58-1231.91,1231.88s551.54,1232,1231.91,1232,1231.89-551.54,1231.89-1232S3956,2731.53,3275.57,2731.53Zm0,2263.23c-569.58,0-1031.33-461.67-1031.33-1031.35,0-569.53,461.75-1031.31,1031.33-1031.31s1031.34,461.78,1031.34,1031.31C4306.91,4533.09,3845.16,4994.76,3275.57,4994.76Z"/><polygon class="cls-43" points="7379.19 3843.86 7072.82 4012.27 6765.15 3528.11 7137.28 3398.83 7379.19 3843.86"/><polygon class="cls-44 contact_block-sec " points="7359.76 3829.31 7073.24 3986.8 6785.52 3534.02 7133.52 3413.14 7359.76 3829.31"/><path class="cls-33" d="M7464.7,3744.63s-53.34-25.51-76.74-38.83-83.61-31.63-88.48-36-178.47-15-189-24.15-20.77,21.3,24.22,31.16,107.61,33.95,111,51.54-46.22,21.75-51.25,36.24,1.41,11.24,8.53,14.35,59-25.66,81.88-17.51,57.76-3.14,75.26,2.87S7462.78,3799,7462.78,3799Z"/><path class="cls-45" d="M7368.46,3782.29,7341,3772.14s34.26-80.41,49.2-78.45c17.23,2.25,38.73,7.93,38.73,7.93Z"/><path class="cls-46" d="M7362.19,3796.18c3.51-2.63,58.37-107.9,58.37-107.9l117.26,15.94-63.37,124.68Z"/><path class="cls-33" d="M7057.88,3951.52s-44.79-40.32-66.47-57.19-62.36-66.49-68.35-69.37-83.69-162.34-96.36-168.73,12-27.85,38.8,10.71,73.9,88.21,91.8,84.58,2.5-52,14.19-62.41,11.15-3.05,16.85,2.45-1.18,65.64,15.4,84,19.52,55.64,32,69.8,72.59,83.21,72.59,83.21Z"/><path class="cls-47" d="M8022.67,6106.6s9.7,67.25,10.9,77.36,107.8-5.95,107.8-5.95l8.63-80.07S8036,6097.1,8022.67,6106.6Z"/><path class="cls-43" d="M8032.44,6175.41s-33.77,40.52-66.43,58.19-84,24.67-103.31,43c-13.94,13.2-50.78,70,84.88,68.88s201.06,8,215.6-13.76-21-160.83-21-160.83S8110,6182.42,8032.44,6175.41Z"/><path class="cls-47" d="M7258.94,6106.6s9.69,67.25,10.91,77.36,107.79-5.95,107.79-5.95l8.63-80.07S7272.27,6097.1,7258.94,6106.6Z"/><path class="cls-43" d="M7268.71,6175.41s-33.77,40.52-66.43,58.19-152.86,32.19-172.18,50.47c-13.94,13.2-37.13,66.34,153.75,61.37,135.6-3.54,201.06,8,215.6-13.76s-21-160.83-21-160.83S7348.14,6183.2,7268.71,6175.41Z"/><path class="cls-43" d="M7934.4,4378.24s100.16,159.12,92.68,302.95,36.33,300.88,51.37,451.14c16.77,167.51,85.4,564.07,87.91,653.67s-10.66,375.74-10.66,375.74l-137.4,3.14s-115.4-693.29-145.29-764-178.11-575.05-183.08-631.65S7934.4,4378.24,7934.4,4378.24Z"/><path class="cls-43" d="M7407.18,4399.79s-75.49,394.24-85.44,482.26-16.61,426.05-21.58,481.06-33.21,720-59.79,801.77H7416s134.83-483.42,134.83-712.15,104.18-497.26,171.43-648.17,221.18-154.47,262.52-434.47C7984.82,4370.09,7463.14,4311,7407.18,4399.79Z"/><path class="cls-33" d="M7767.27,3040.42s-134.42-50.22-196.41,52.11-56,307.19,11.75,332.38,169.56,12,204.25-52,66-156.62,64.51-218.47S7802.59,3058.27,7767.27,3040.42Z"/><path class="cls-33" d="M7597.2,3429.61s5.6,36.27-3.65,54.16,174.16,18.35,174.16,18.35,14.9-97.26,43.12-179.41S7597.2,3429.61,7597.2,3429.61Z"/><path class="cls-48" d="M7810.83,3322.71s-12.66,20.88-64.33,12.78-114.71-76.86-136.28-84.41-21.79-20.22-21.79-20.22l-13.5,19.73L7552,3252s20.9-61.49-10.62-86.56,32.72-199.07,198.43-141.15c0,0,127.29,35.1,122.66,107.48S7839.32,3286.65,7810.83,3322.71Z"/><path class="cls-44" d="M7582.66,3481.63s.58-34.17,16.07-37.44,170.92-18.23,189.93-10.75v39.8S7752,3495.77,7582.66,3481.63Z"/><path class="cls-33" d="M7591.87,3204.53c2.88-12.13,33.77-46.83,45.59-9.68S7619.59,3282,7603,3277.7,7584.51,3235.32,7591.87,3204.53Z"/><path class="cls-49" d="M6965.79,3885.25a.46.46,0,0,1,.26,0C6965,3885.69,6964.83,3885.72,6965.79,3885.25Z"/><path class="cls-49" d="M8047.4,4757.32s-82.45,24.26-223,39.76-491.84-5.61-494.06-22.2,75.55-618.45,71.14-649.46-6.81-141.44-6.81-141.44c-1.73,30.27-32.56,153.87-69.77,221.25-13.46,24.35-58.56,100.64-80.29,83.3-105.23-84-268.18-400.63-278.51-403.31,8.67-3.76,77.21-35.34,86.84-38.53,8.42-2.82,84.33,77.56,130.34,127.38,20.5,22.22,35.06,38.35,35.06,38.35,13.29-29.89,61.67-218.15,76.71-283.31,33.91-147,28.68-153.05,28.68-153.05,102.86-31.12,259-94.43,259-94.43l206-8.41s189.06,41.61,263.5,75.26c7.06,3.17,7.1,168.65,26.49,212l-61.73,130.23s-35.66,258-43.07,372.69C7970.46,4316.11,8047.4,4757.32,8047.4,4757.32Z"/><path class="cls-49" d="M8087.2,3975.34c-5.4,17.36-29.81,32-45.66,38.44a59,59,0,0,1-33,3.32l-8.07-1.49h0l-141.16-26.18s-30.9-355.73,192.84-440.95C8058.08,3550.4,8136.6,3816.08,8087.2,3975.34Z"/><path class="cls-50" d="M8041.54,4013.78h0a59,59,0,0,1-33,3.32l-8.07-1.49h0l13.93-181.78Z"/><path class="cls-50" d="M7218.31,4012.42l-17.25,73.07s-18.72-73.33-17.81-111.42C7203.75,3996.29,7218.31,4012.42,7218.31,4012.42Z"/><path class="cls-48" d="M7805.56,3052.47s176.21-20.31,3,274Z"/><polygon class="cls-43 " points="6906.77 3502.12 6888.87 3471.35 7029.94 3422.67 7047.84 3453.28 6906.77 3502.12"/></g></g></svg>